#!OML:ASF X:\für Bonn\!DataBase\2005_08_11_Bastian_Final\c3d\Bastian.ASF
:FULLY-SPECIFIED
:DEGREES
106
root -2.18053 16.117 3.3199 161.805 -44.7039 -173.008
lowerback 8.98378 -1.08618 2.57792
upperback 1.16437 -1.21612 1.63258
thorax -3.84465 -0.668756 0.393857
lowerneck 11.2508 -18.477 -10.5255
upperneck -7.40009 -25.6098 15.886
head -0.548919 -13.3443 6.51953
rclavicle 4.69753e-014 -6.24929e-015
rhumerus 18.9616 -22.3514 -36.733
rradius 105.934
rwrist -234.314
rhand -7.53597 -61.9126
rfingers 7.12502
rthumb 18.3553 -268.933
lclavicle 4.69753e-014 -6.24929e-015
lhumerus 440.034 -9.74603 -304.92
lradius 83.7925
lwrist -146.52
lhand -8.92632 43.0173
lfingers 7.12502
lthumb 17.0174 72.292
rfemur -15.1702 -9.52377 9.95752
rtibia 53.7286
rfoot -20.9654 1.04562
rtoes -26.7999
lfemur 16.5794 -25.5405 -10.4472
ltibia 36.6091
lfoot -24.9931 -16.1466
ltoes -23.3349
107
root -2.15262 16.1604 3.19413 161.986 -45.3265 -173.171
lowerback 8.82066 -1.10973 2.38196
upperback 1.00233 -1.26077 1.55335
thorax -3.92059 -0.685184 0.425764
lowerneck 11.2091 -18.4908 -10.6951
upperneck -7.21282 -25.6677 15.8782
head -0.459799 -13.366 6.51135
rclavicle -8.66701e-014 -1.32937e-014
rhumerus 18.9696 -22.7038 -36.0213
rradius 105.944
rwrist -234.209
rhand -7.35011 -62.1965
rfingers 7.12502
rthumb 18.5341 -268.666
lclavicle -8.66701e-014 -1.32937e-014
lhumerus 440.037 -9.70346 -304.849
lradius 83.9666
lwrist -146.741
lhand -9.04791 43.3399
lfingers 7.12502
lthumb 16.9003 72.6246
rfemur -14.6819 -10.2565 9.90745
rtibia 53.4855
rfoot -20.8469 1.37543
rtoes -26.3249
lfemur 16.5034 -25.0502 -9.9907
ltibia 36.3136
lfoot -23.9651 -15.6276
ltoes -24.9618
108
root -2.12482 16.2091 3.06863 162.166 -45.9795 -173.342
lowerback 8.65001 -1.1368 2.16564
upperback 0.860405 -1.3141 1.45657
thorax -3.97108 -0.705565 0.45137
lowerneck 11.1689 -18.5094 -10.7933
upperneck -7.06263 -25.7217 15.8988
head -0.38722 -13.39 6.50679
rclavicle 7.24819e-014 2.48481e-014
rhumerus 18.9588 -23.0647 -35.3189
rradius 105.954
rwrist -234.093
rhand -7.08035 -62.472
rfingers 7.12502
rthumb 18.7935 -268.416
lclavicle 7.24819e-014 2.48481e-014
lhumerus 440.112 -9.63248 -304.876
lradius 84.1027
lwrist -146.811
lhand -9.17626 43.6837
lfingers 7.12502
lthumb 16.7768 72.9789
rfemur -14.1443 -10.9581 9.86413
rtibia 53.1668
rfoot -20.6646 1.64131
rtoes -25.6424
lfemur 16.352 -24.5067 -9.52922
ltibia 36.0876
lfoot -22.8668 -15.0542
ltoes -26.7159
109
root -2.09783 16.2595 2.94323 162.351 -46.621 -173.499
lowerback 8.44147 -1.17209 1.92426
upperback 0.731528 -1.38219 1.37885
thorax -3.98547 -0.732812 0.511346
lowerneck 11.1487 -18.5163 -10.8374
upperneck -6.96144 -25.7493 15.9064
head -0.344134 -13.4024 6.50155
rclavicle 1.9133e-015 -1.0138e-014
rhumerus 18.9581 -23.3869 -34.6124
rradius 105.937
rwrist -234.011
rhand -6.85236 -62.8301
rfingers 7.12502
rthumb 19.0128 -268.079
lclavicle 1.9133e-015 -1.0138e-014
lhumerus 440.223 -9.50246 -304.923
lradius 84.2241
lwrist -146.855
lhand -9.26528 43.9626
lfingers 7.12502
lthumb 16.6911 73.265
rfemur -13.5825 -11.5876 9.86237
rtibia 52.7816
rfoot -20.4187 1.83254
rtoes -24.4897
lfemur 16.1188 -23.8891 -9.04532
ltibia 35.9627
lfoot -21.706 -14.4
ltoes -28.5117
110
root -2.07095 16.3129 2.81887 162.538 -47.261 -173.645
lowerback 8.22484 -1.2173 1.66076
upperback 0.604289 -1.4653 1.31468
thorax -3.9922 -0.767169 0.599064
lowerneck 11.1157 -18.5201 -10.8227
upperneck -6.85913 -25.7635 15.8711
head -0.31375 -13.4068 6.47952
rclavicle -5.00627e-014 -9.0447e-015
rhumerus 18.9841 -23.6686 -33.9569
rradius 105.862
rwrist -233.945
rhand -6.68562 -63.2442
rfingers 7.12502
rthumb 19.1732 -267.681
lclavicle -5.00627e-014 -9.0447e-015
lhumerus 440.344 -9.35178 -304.968
lradius 84.286
lwrist -146.797
lhand -9.46405 44.2851
lfingers 7.12502
lthumb 16.4997 73.6035
rfemur -12.9954 -12.1707 9.89485
rtibia 52.3309
rfoot -20.1409 1.94736
rtoes -23.1562
lfemur 15.8006 -23.1923 -8.54964
ltibia 35.9558
lfoot -20.5397 -13.6304
ltoes -30.4543
111
root -2.04422 16.37 2.69459 162.693 -47.8889 -173.785
lowerback 8.0429 -1.25569 1.43387
upperback 0.495667 -1.53667 1.21869
thorax -4.00011 -0.79668 0.632216
lowerneck 11.0359 -18.5389 -10.7071
upperneck -6.77201 -25.7813 15.8187
head -0.295155 -13.4135 6.43926
rclavicle 1.07232e-013 2.00773e-014
rhumerus 18.9851 -23.9761 -33.3204
rradius 105.741
rwrist -233.941
rhand -6.60016 -63.7453
rfingers 7.12502
rthumb 19.2553 -267.188
lclavicle 1.07232e-013 2.00773e-014
lhumerus 440.527 -9.21565 -305.07
lradius 84.3401
lwrist -146.734
lhand -9.63621 44.6174
lfingers 7.12502
lthumb 16.3339 73.9496
rfemur -12.3393 -12.7017 9.96151
rtibia 51.8132
rfoot -19.8629 1.92259
rtoes -21.9166
lfemur 15.4698 -22.4581 -8.07425
ltibia 36.0571
lfoot -19.367 -12.7288
ltoes -32.4123
112
root -2.01906 16.4321 2.57225 162.876 -48.5208 -173.936
lowerback 7.85871 -1.31161 1.21218
upperback 0.387877 -1.63075 1.1306
thorax -4.00535 -0.837674 0.672918
lowerneck 10.8931 -18.5524 -10.6333
upperneck -6.63185 -25.798 15.7812
head -0.244115 -13.4172 6.39596
rclavicle -4.57329e-014 8.24956e-015
rhumerus 19.057 -24.2478 -32.7301
rradius 105.567
rwrist -233.918
rhand -6.51436 -64.3131
rfingers 7.12502
rthumb 19.3378 -266.628
lclavicle -4.57329e-014 8.24956e-015
lhumerus 440.718 -9.02779 -305.165
lradius 84.3485
lwrist -146.622
lhand -9.89799 44.9539
lfingers 7.12502
lthumb 16.0819 74.3066
rfemur -11.6693 -13.2035 10.0306
rtibia 51.2228
rfoot -19.5957 1.83541
rtoes -20.7753
lfemur 15.0842 -21.7412 -7.64597
ltibia 36.2422
lfoot -18.129 -11.7612
ltoes -34.0388
